<svg width="14" height="14" viewBox="0 0 14 14" xmlns="http://www.w3.org/2000/svg">
<path fill-rule="evenodd" clip-rule="evenodd" d="M2.875 0.875C1.77043 0.875 0.875 1.77043 0.875 2.875V11.125C0.875 12.2296 1.77043 13.125 2.875 13.125H11.125C12.2296 13.125 13.125 12.2296 13.125 11.125V2.875C13.125 1.77043 12.2296 0.875 11.125 0.875H2.875ZM5.19422 7.04991C4.712 6.56027 4.46323 5.94908 4.44792 5.21635C4.46323 4.48361 4.712 3.87242 5.19422 3.38278C5.67644 2.89314 6.27837 2.64055 7 2.625C7.72163 2.64055 8.32356 2.89314 8.80578 3.38278C9.288 3.87242 9.53677 4.48361 9.55208 5.21635C9.53677 5.94908 9.288 6.56027 8.80578 7.04991C8.32356 7.53955 7.72163 7.79214 7 7.80769C6.27837 7.79214 5.67644 7.53955 5.19422 7.04991ZM2.98958 12.25H10.6458H11.0104C11.1169 12.25 11.2043 12.2153 11.2726 12.146C11.3409 12.0766 11.375 11.9879 11.375 11.8798V10.7692C11.3597 10.2448 11.1812 9.80908 10.8394 9.46208C10.4977 9.11509 10.0686 8.93382 9.55208 8.91827H4.44792C3.93142 8.93382 3.50231 9.11509 3.16057 9.46208C2.81884 9.80908 2.64031 10.2448 2.625 10.7692V11.8798C2.625 11.9879 2.65915 12.0766 2.72745 12.146C2.79575 12.2153 2.88313 12.25 2.98958 12.25Z"/>
</svg>
