<svg width="14" height="14" viewBox="0 0 14 14" xmlns="http://www.w3.org/2000/svg">
<path fill-rule="evenodd" clip-rule="evenodd" d="M1.75 1.875C1.75 1.32272 2.19772 0.875 2.75 0.875H11.25C11.8023 0.875 12.25 1.32272 12.25 1.875V12.125C12.25 12.6773 11.8023 13.125 11.25 13.125H2.75C2.19772 13.125 1.75 12.6773 1.75 12.125V1.875ZM10.5 9.625H3.5V8.625H10.5V9.625ZM3.5 7.875H10.5V6.875H3.5V7.875ZM7 11.375H3.5V10.375H7V11.375ZM4.8125 5.25C5.53737 5.25 6.125 4.66237 6.125 3.9375C6.125 3.21263 5.53737 2.625 4.8125 2.625C4.08763 2.625 3.5 3.21263 3.5 3.9375C3.5 4.66237 4.08763 5.25 4.8125 5.25Z"/>
</svg>
