<svg width="14" height="14" viewBox="0 0 14 14" xmlns="http://www.w3.org/2000/svg">
<path fill-rule="evenodd" clip-rule="evenodd" d="M9.5 4.375V3.5C9.5 2.11929 8.38071 1 7 1C5.61929 1 4.5 2.11929 4.5 3.5V4.375H9.5ZM3.5 3.5V4.375H1.875C1.32272 4.375 0.875 4.82272 0.875 5.375L0.875 12.125C0.875 12.6773 1.32272 13.125 1.875 13.125H12.125C12.6773 13.125 13.125 12.6773 13.125 12.125V5.375C13.125 4.82272 12.6773 4.375 12.125 4.375H10.5V3.5C10.5 1.567 8.933 0 7 0C5.067 0 3.5 1.567 3.5 3.5ZM8.75 7.875C8.75 8.53404 8.3857 9.10799 7.84749 9.40647C7.86545 9.47632 7.875 9.54954 7.875 9.625V10.5C7.875 10.9832 7.48325 11.375 7 11.375C6.51675 11.375 6.125 10.9832 6.125 10.5V9.625C6.125 9.54954 6.13455 9.47632 6.15251 9.40647C5.6143 9.10799 5.25 8.53404 5.25 7.875C5.25 6.9085 6.0335 6.125 7 6.125C7.9665 6.125 8.75 6.9085 8.75 7.875Z"/>
</svg>
