<svg width="14" height="14" viewBox="0 0 14 14" xmlns="http://www.w3.org/2000/svg">
<path d="M11.4525 13.125H2.55694C2.11504 13.125 1.75 12.7547 1.75 12.3064V3.5C1.75 3.05171 2.11504 2.68138 2.55694 2.68138H2.96041V3.03431C2.96041 3.4826 3.32545 3.85292 3.76735 3.85292H10.2325C10.6744 3.85292 11.0394 3.4826 11.0394 3.03431V2.68138H11.4429C11.8848 2.68138 12.2498 3.05171 12.2498 3.5V12.3064C12.2594 12.7547 11.8944 13.125 11.4525 13.125ZM9.64648 7.57012C9.40632 7.33623 9.02206 7.33623 8.7819 7.57012L6.62045 9.65564L5.61178 8.6811C5.37162 8.44721 4.98736 8.44721 4.7472 8.6811C4.50704 8.91499 4.50704 9.28531 4.7472 9.50946L6.18816 10.8933C6.42833 11.1272 6.81258 11.1272 7.05274 10.8933L9.64648 8.39848C9.88664 8.17434 9.88664 7.80401 9.64648 7.57012Z"/>
<rect x="3.5" y="0.875" width="7" height="1.75" rx="0.875"/>
</svg>
