<svg width="14" height="14" viewBox="0 0 14 14" xmlns="http://www.w3.org/2000/svg">
<path fill-rule="evenodd" clip-rule="evenodd" d="M0.875 1.875C0.875 1.32272 1.32272 0.875 1.875 0.875H12.125C12.6773 0.875 13.125 1.32272 13.125 1.875V12.125C13.125 12.6773 12.6773 13.125 12.125 13.125H1.875C1.32272 13.125 0.875 12.6773 0.875 12.125V1.875ZM9.625 3.5H3.5V2.5H9.625V3.5ZM3.5 6.125H9.625V5.125H3.5V6.125ZM6.125 8.75H3.5V7.75H6.125V8.75ZM6.54917 10.9242C6.15865 11.3147 6.15865 11.9479 6.54917 12.3384C6.9397 12.7289 7.57286 12.7289 7.96339 12.3384L12.3384 7.9634L10.9242 6.54919L6.54917 10.9242Z"/>
</svg>
