<svg width="14" height="14" viewBox="0 0 14 14" fill="none" xmlns="http://www.w3.org/2000/svg">
<path d="M12.5029 8.93418C12.4277 8.93418 12.3525 8.94922 12.2842 8.9793L12.2814 8.98066H12.2787L6.97539 11.2406L1.6707 8.98203H1.66797L1.66523 8.98066C1.59688 8.95195 1.52441 8.93555 1.44648 8.93555C1.13066 8.93555 0.875 9.19941 0.875 9.52481C0.875 9.7709 1.02129 9.98008 1.22773 10.0689L6.74981 12.4219L6.75527 12.4232C6.89473 12.4834 7.05332 12.4834 7.19277 12.4232L7.19551 12.4219C7.19688 12.4219 7.19688 12.4205 7.19824 12.4205L12.7203 10.0676C12.9268 9.97871 13.073 9.76953 13.073 9.52344C13.0744 9.19805 12.8188 8.93418 12.5029 8.93418ZM12.5029 6.38437C12.3949 6.38164 12.2842 6.42812 12.2842 6.42812L6.97539 8.68945L1.66523 6.42812C1.66523 6.42812 1.52441 6.38437 1.44648 6.38437C1.13066 6.38437 0.875 6.64687 0.875 6.97227C0.875 7.21699 1.02129 7.42754 1.22773 7.51504L6.74981 9.8666C6.75117 9.8666 6.75117 9.86797 6.75254 9.86797L6.75391 9.86934C6.82227 9.89805 6.89473 9.91445 6.97266 9.91445C7.05059 9.91445 7.12441 9.89805 7.19141 9.86934L7.19414 9.86797C7.19551 9.86797 7.19551 9.86797 7.19688 9.8666L12.7189 7.51504C12.9254 7.42754 13.0717 7.21699 13.073 6.97227C13.0744 6.64687 12.8188 6.38437 12.5029 6.38437ZM1.22773 4.96523L6.74981 7.31816C6.75117 7.31816 6.75117 7.31816 6.75254 7.31953L6.75391 7.3209C6.82227 7.34961 6.89473 7.36465 6.97266 7.36465C7.04785 7.36465 7.12168 7.34961 7.19141 7.3209L7.19414 7.31953L7.19688 7.31816L12.7189 4.9666C12.9254 4.87773 13.0717 4.66855 13.073 4.42383C13.073 4.17773 12.9268 3.96855 12.7203 3.87969L7.19824 1.52539C7.19688 1.52539 7.19688 1.52539 7.19551 1.52402L7.19277 1.52266C7.05332 1.4625 6.89473 1.4625 6.75527 1.52266L6.75391 1.52402L1.22773 3.87832C1.02129 3.96582 0.875 4.17637 0.875 4.42246C0.875 4.66719 1.02129 4.87637 1.22773 4.96523Z" fill="#30343B"/>
</svg>
