<svg width="14" height="14" viewBox="0 0 14 14" xmlns="http://www.w3.org/2000/svg">
<path fill-rule="evenodd" clip-rule="evenodd" d="M7.40964 0.949283C7.14553 0.850239 6.85447 0.850239 6.59036 0.949283L2.50702 2.48053C2.05167 2.65129 1.75 3.0866 1.75 3.57292V6.70117C1.75 8.68973 2.87351 10.5076 4.65213 11.3969L6.60869 12.3752C6.85502 12.4984 7.14497 12.4984 7.39131 12.3752L9.34787 11.3969C11.1265 10.5076 12.25 8.68973 12.25 6.70117V3.57292C12.25 3.0866 11.9483 2.65129 11.493 2.48053L7.40964 0.949283ZM9.61521 4.65717L9.95035 4.93839C10.1355 5.09361 10.1597 5.36957 10.0044 5.55466L10.0042 5.55468L7.0782 9.0398L7.06973 9.04958C6.91529 9.23537 6.63948 9.2608 6.45367 9.10637L6.44686 9.10059L4.70642 7.59297C4.52379 7.43476 4.50398 7.15846 4.66219 6.97583L4.66775 6.96954L4.96129 6.64352C5.12042 6.46679 5.39157 6.44954 5.57182 6.60467L6.63827 7.52257L8.99875 4.71102C9.15418 4.52608 9.43007 4.50198 9.61521 4.65717Z"/>
</svg>
